<svg xmlns="http://www.w3.org/2000/svg" viewBox="0 0 200 200" width="200" height="200">
  <defs>
    <!-- Professional gradient -->
    <linearGradient id="mainGradient" x1="0%" y1="0%" x2="100%" y2="100%">
      <stop offset="0%" style="stop-color:#1e293b;stop-opacity:1" />
      <stop offset="100%" style="stop-color:#334155;stop-opacity:1" />
    </linearGradient>
    
    <!-- Accent gradient for chart elements -->
    <linearGradient id="accentGradient" x1="0%" y1="100%" x2="0%" y2="0%">
      <stop offset="0%" style="stop-color:#3b82f6;stop-opacity:1" />
      <stop offset="100%" style="stop-color:#06b6d4;stop-opacity:1" />
    </linearGradient>
    
    <!-- Subtle shadow -->
    <filter id="subtleShadow" x="-20%" y="-20%" width="140%" height="140%">
      <feDropShadow dx="0" dy="2" stdDeviation="4" flood-color="#000000" flood-opacity="0.1"/>
    </filter>
  </defs>
  
  <!-- Main container with rounded corners -->
  <rect x="20" y="20" width="160" height="160" rx="24" ry="24" 
        fill="url(#mainGradient)" 
        filter="url(#subtleShadow)"/>
  
  <!-- Inner content area -->
  <rect x="30" y="30" width="140" height="140" rx="16" ry="16" 
        fill="rgba(255,255,255,0.03)" 
        stroke="rgba(255,255,255,0.08)" 
        stroke-width="1"/>
  
  <!-- Main icon content -->
  <g transform="translate(100, 100)">
    
    <!-- Analytics chart bars - clean and minimal -->
    <g opacity="0.9">
      <!-- Bar 1 -->
      <rect x="-45" y="10" width="12" height="30" fill="url(#accentGradient)" rx="2"/>
      <!-- Bar 2 -->
      <rect x="-25" y="-5" width="12" height="45" fill="url(#accentGradient)" rx="2"/>
      <!-- Bar 3 -->
      <rect x="-5" y="-20" width="12" height="60" fill="url(#accentGradient)" rx="2"/>
      <!-- Bar 4 -->
      <rect x="15" y="-10" width="12" height="50" fill="url(#accentGradient)" rx="2"/>
      <!-- Bar 5 -->
      <rect x="35" y="-35" width="12" height="75" fill="url(#accentGradient)" rx="2"/>
    </g>
    
    <!-- Trend line overlay -->
    <path d="M -40 25 L -20 10 L 0 -5 L 20 5 L 40 -15" 
          stroke="#06b6d4" 
          stroke-width="2.5" 
          fill="none" 
          opacity="0.8"
          stroke-linecap="round"
          stroke-linejoin="round"/>
    
    <!-- Data points -->
    <circle cx="-40" cy="25" r="2.5" fill="#06b6d4" opacity="0.9"/>
    <circle cx="-20" cy="10" r="2.5" fill="#06b6d4" opacity="0.9"/>
    <circle cx="0" cy="-5" r="2.5" fill="#06b6d4" opacity="0.9"/>
    <circle cx="20" cy="5" r="2.5" fill="#06b6d4" opacity="0.9"/>
    <circle cx="40" cy="-15" r="2.5" fill="#06b6d4" opacity="0.9"/>
    
    <!-- Subtle "S" monogram in top corner -->
    <g transform="translate(25, -35) scale(0.6)" opacity="0.6">
      <path d="M -8 -12 Q -12 -16, -8 -18 Q 0 -20, 8 -16 Q 12 -14, 10 -10 Q 8 -6, 4 -4 Q 0 -2, 2 2 Q 4 6, 8 8 Q 12 10, 10 14 Q 8 18, 0 20 Q -8 18, -12 14 Q -14 12, -10 10" 
            fill="rgba(255,255,255,0.4)"/>
    </g>
    
  </g>
  
  <!-- Subtle corner accents -->
  <circle cx="45" cy="45" r="2" fill="#3b82f6" opacity="0.3"/>
  <circle cx="155" cy="155" r="2" fill="#06b6d4" opacity="0.3"/>
  
</svg>